<svg width="113" height="29" viewBox="0 0 113 29" fill="none" xmlns="http://www.w3.org/2000/svg">
<path d="M12.3868 13.623C12.3868 14.1815 12.2198 14.7274 11.907 15.1918C11.5942 15.6562 11.1496 16.0181 10.6295 16.2319C10.1093 16.4456 9.53691 16.5015 8.98471 16.3926C8.4325 16.2836 7.92526 16.0147 7.52714 15.6197C7.12902 15.2248 6.8579 14.7217 6.74806 14.1739C6.63822 13.6261 6.69459 13.0583 6.91005 12.5424C7.12551 12.0264 7.49038 11.5854 7.95852 11.2751C8.42666 10.9648 8.97705 10.7992 9.54007 10.7992C10.2951 10.7992 11.0191 11.0967 11.553 11.6262C12.0869 12.1558 12.3868 12.8741 12.3868 13.623Z" fill="#119DD8"/>
<path d="M9.54008 18.4338C8.57961 18.4368 7.63983 18.157 6.83977 17.6299C6.03971 17.1027 5.41536 16.3519 5.04579 15.4725C4.67622 14.5931 4.57806 13.6247 4.76374 12.6899C4.94942 11.7551 5.41059 10.896 6.08884 10.2214C6.76709 9.54685 7.63191 9.08709 8.57376 8.90041C9.51562 8.71372 10.4921 8.8085 11.3797 9.17275C12.2672 9.537 13.0257 10.1543 13.5593 10.9465C14.0929 11.7388 14.3774 12.6702 14.3769 13.623C14.3769 14.8967 13.8677 16.1184 12.961 17.0202C12.0543 17.922 10.8241 18.4304 9.54008 18.4338ZM17.4513 5.88827C16.3618 5.50833 14.6228 5.07706 10.1845 5.07706C9.51812 5.07237 8.85303 5.13516 8.19953 5.26446C6.92412 5.45478 5.70873 5.92918 4.64458 6.65207C3.58043 7.37496 2.69516 8.32755 2.05521 9.43835C1.41526 10.5491 1.03726 11.7893 0.949571 13.0657C0.861884 14.3422 1.06679 15.6217 1.54891 16.8084C2.03103 17.995 2.77785 19.0579 3.7333 19.9173C4.68876 20.7767 5.82803 21.4103 7.06563 21.7705C8.30322 22.1307 9.60699 22.2082 10.8791 21.997C12.1512 21.7859 13.3585 21.2918 14.4105 20.5516C13.9809 22.2151 12.7103 24.3792 9.05614 24.3792C5.5728 24.3792 3.67585 22.4179 3.67585 22.4179L1.77632 24.5127C2.74017 25.501 3.8971 26.2839 5.17639 26.8136C6.45567 27.3433 7.83042 27.6086 9.21659 27.5932C14.4209 27.5932 18.0492 24.8875 18.0492 19.34V13.949C18.0492 13.8361 18.0492 13.7257 18.0492 13.6127C18.0492 13.4998 18.0492 13.3868 18.0492 13.2739V13.2405C17.981 11.6076 17.4332 10.03 16.4731 8.70182L16.4239 8.65818L17.7774 7.68268C18.3675 7.25654 18.4011 7.04347 18.3804 6.71488C18.3571 6.30927 17.8913 6.03973 17.4513 5.88827Z" fill="#1E3261"/>
<path d="M91.2381 7.67243C91.0737 7.3051 90.8862 6.94842 90.6765 6.60451C89.6957 5.04627 88.7485 5.2465 88.7485 5.2465C88.6304 5.24909 88.5139 5.27519 88.4061 5.32327C88.2983 5.37134 88.2014 5.44041 88.121 5.52636C88.0406 5.61232 87.9785 5.71342 87.9382 5.82365C87.898 5.93389 87.8805 6.05102 87.8867 6.1681C87.8867 7.29763 87.9023 13.8823 87.9126 18.3824V22.038H91.766C91.766 20.7416 91.9239 15.0426 91.9239 13.5152C91.9239 11.9877 92.7805 9.29741 96.4968 8.63766L97.2731 8.46823L97.3042 5.06424H96.8798C95.8075 5.07911 94.7506 5.31871 93.7783 5.76732C92.806 6.21594 91.9404 6.86342 91.2381 7.66729" fill="#1E3261"/>
<path d="M31.3045 14.4522C30.8154 15.0837 30.1684 15.8923 29.524 16.5829C28.1291 18.0872 26.8481 18.3798 26.1778 18.195C25.5076 18.0102 24.9977 17.7406 24.9382 15.6279L24.6458 5.35944H21.0434C21.0227 8.18326 20.9709 16.4982 20.9709 16.4982C20.9502 19.5787 22.327 22.0842 26.0614 22.0842C27.2285 22.0842 28.6338 21.8146 30.6705 19.571C30.9725 19.2697 31.2551 18.9499 31.5167 18.6135C31.7413 19.3463 32.0431 20.0536 32.4173 20.7236C33.3981 22.2844 34.3453 22.0842 34.3453 22.0842C34.4637 22.0813 34.5803 22.0549 34.6882 22.0065C34.7962 21.9582 34.8933 21.8889 34.9738 21.8028C35.0544 21.7167 35.1168 21.6155 35.1573 21.5051C35.1978 21.3947 35.2156 21.2774 35.2097 21.16C35.2226 19.6198 35.4969 8.1807 35.515 5.35944H31.4624C31.4624 6.05256 31.3226 11.464 31.3045 14.4547" fill="#1E3261"/>
<path d="M62.3828 17.9794C62.0674 18.1516 61.7023 18.2122 61.3476 18.1514C60.5971 18.0076 59.8155 17.697 59.4455 15.5843L57.6339 5.30298H53.9617C54.3757 8.12681 55.5895 16.4417 55.5895 16.4417C56.0398 19.5222 57.1422 22.0277 60.2684 22.0277C60.6178 22.025 60.9655 21.9793 61.3036 21.8917C61.2078 21.961 60.9956 22.3204 60.7498 24.0763C60.4159 26.4637 61.4304 28.9898 62.4475 28.9898C63.0996 28.9898 63.3299 28.6689 63.5991 27.832C63.8682 26.9951 70.0352 5.32095 70.0352 5.32095H65.7367L62.3828 17.9794Z" fill="#1E3261"/>
<path d="M85.1876 10.5399C85.2187 5.59304 79.8177 5.10272 78.0708 5.10272H78.0269C76.28 5.10272 70.8712 5.83692 70.8376 11.3151C70.8195 14.139 70.8117 15.1093 70.8117 15.1093C70.791 18.1899 72.3153 22.1176 77.9182 22.0406C81.9657 21.9841 84.388 20.8982 84.388 20.8982L84.375 18.2438C84.375 18.2438 79.1552 19.2347 76.5673 18.5647C76.0497 18.4261 75.2241 17.946 74.9446 16.6445C75.514 16.5598 76.5931 16.3698 78.3917 15.9642C84.7218 14.5292 85.1695 12.4832 85.1825 10.5399M74.8592 13.8258V12.1751C74.8592 12.1186 74.8592 12.0776 74.8592 12.0211C74.8592 9.7338 75.721 8.85841 78.0087 8.85841C80.1075 8.85841 81.1479 9.52073 81.1427 10.6349C81.1427 11.3588 80.8684 12.0365 79.4088 12.6449C78.2598 13.1198 75.8297 13.6281 74.8463 13.8258" fill="#1E3261"/>
<path d="M45.168 5.09503C41.1205 5.32094 38.6982 6.50951 38.6982 6.50951L38.7137 9.48737C38.7137 9.48737 43.9465 8.29879 46.5189 8.84045C48.3693 9.23066 48.2709 11.1509 48.2709 11.1509C47.0718 11.1881 45.8767 11.3082 44.6944 11.5103C38.4006 12.5089 37.9115 14.9528 37.9011 16.8986C37.8701 21.8429 43.1339 22.0329 45.0153 22.0329C47.8802 22.0329 52.2615 21.6812 52.2615 16.606C52.2615 13.7822 52.2848 11.7285 52.2848 11.7285C52.3055 8.64792 50.7812 4.79725 45.1784 5.09503M48.3123 15.4456C48.2994 17.7304 47.9759 18.4723 45.1318 18.4723C43.0304 18.4723 41.9305 17.8664 41.9383 16.7523C41.9383 16.0284 42.2126 15.3507 43.6722 14.7423C44.8186 14.2673 47.1892 14.0517 48.3123 13.9567V15.4456Z" fill="#1E3261"/>
<path d="M112.971 5.23109L113 0.186707H109.599L109.216 6.42993C108.198 5.54288 106.887 5.05699 105.531 5.06423H104.431C102.327 5.06423 98.5981 6.62503 98.5671 11.2895C98.549 14.1133 98.5334 16.4468 98.5334 16.4468C98.5127 19.5274 99.8921 22.0354 103.624 22.0354C104.794 22.0354 106.196 21.7633 108.236 19.5197C108.45 19.286 108.929 18.8727 109.105 18.6674C109.377 19.3765 109.705 20.0632 110.086 20.7211C111.067 22.2793 112.014 22.0791 112.014 22.0791C112.132 22.0761 112.248 22.0498 112.356 22.0016C112.464 21.9535 112.561 21.8844 112.641 21.7986C112.722 21.7128 112.784 21.6118 112.825 21.5017C112.866 21.3916 112.884 21.2746 112.878 21.1575C112.878 20.5388 112.896 18.2772 112.912 15.6125C112.912 15.0041 112.912 14.2673 112.927 13.3868C112.927 13.0634 112.927 12.7579 112.927 12.496L112.966 5.22339L112.971 5.23109ZM108.87 14.4111C108.38 15.0426 107.731 15.8487 107.089 16.5418C105.692 18.0436 104.413 18.3388 103.74 18.1514C103.067 17.964 102.578 17.697 102.591 15.5843C102.591 15.5843 102.591 15.3276 102.612 12.5191C102.625 10.2318 103.479 8.82248 105.769 8.82248C108.06 8.82248 108.895 10.2318 108.875 12.5191C108.875 13.0069 108.875 13.6795 108.875 14.4008" fill="#1E3261"/>
</svg>
