<svg width="104" height="14" viewBox="0 0 104 14" fill="none" xmlns="http://www.w3.org/2000/svg">
<path d="M2.822 0.929999H4.743L2.533 11.317H8.602L8.245 13H0.255L2.822 0.929999ZM12.7819 13.17C12.1245 13.17 11.5579 13.0057 11.0819 12.677C10.6059 12.3483 10.2432 11.9063 9.99388 11.351C9.74454 10.7957 9.61988 10.178 9.61988 9.498C9.61988 8.77267 9.75021 8.08133 10.0109 7.424C10.2715 6.75533 10.6285 6.166 11.0819 5.656C11.5465 5.13467 12.0735 4.721 12.6629 4.415C13.2522 4.109 13.8699 3.956 14.5159 3.956C15.1619 3.956 15.7059 4.13167 16.1479 4.483C16.5899 4.83433 16.8959 5.27067 17.0659 5.792L17.4229 4.126H19.3099L17.8819 10.79C17.8705 10.8467 17.8592 10.8977 17.8479 10.943C17.8479 10.977 17.8479 11.011 17.8479 11.045C17.8479 11.2717 17.9782 11.3907 18.2389 11.402L17.8989 13C17.7402 13.0227 17.5985 13.0397 17.4739 13.051C17.3492 13.0737 17.2359 13.085 17.1339 13.085C16.7825 13.085 16.5105 13.0113 16.3179 12.864C16.1252 12.7053 16.0289 12.4843 16.0289 12.201C16.0289 12.1443 16.0289 12.0763 16.0289 11.997C16.0402 11.9177 16.0515 11.827 16.0629 11.725C16.0855 11.623 16.1139 11.5097 16.1479 11.385C15.7059 11.9517 15.1789 12.3937 14.5669 12.711C13.9662 13.017 13.3712 13.17 12.7819 13.17ZM13.5979 11.572C13.8245 11.572 14.0625 11.5267 14.3119 11.436C14.5725 11.3453 14.8219 11.2207 15.0599 11.062C15.3092 10.9033 15.5359 10.7163 15.7399 10.501C15.9439 10.2857 16.1082 10.0533 16.2329 9.804L16.7089 7.475C16.6635 7.11233 16.5445 6.78933 16.3519 6.506C16.1592 6.21133 15.9212 5.979 15.6379 5.809C15.3659 5.639 15.0712 5.554 14.7539 5.554C14.3232 5.554 13.9152 5.66167 13.5299 5.877C13.1559 6.081 12.8215 6.35867 12.5269 6.71C12.2435 7.06133 12.0169 7.45233 11.8469 7.883C11.6769 8.31367 11.5919 8.75 11.5919 9.192C11.5919 9.64533 11.6712 10.0477 11.8299 10.399C11.9999 10.7503 12.2322 11.0337 12.5269 11.249C12.8329 11.4643 13.1899 11.572 13.5979 11.572ZM28.004 13.119C27.1427 13.119 26.3267 12.983 25.556 12.711C24.7967 12.4277 24.1394 12.0197 23.584 11.487L24.825 9.855C24.9157 10.0023 25.0687 10.1667 25.284 10.348C25.4994 10.518 25.7657 10.6823 26.083 10.841C26.4004 10.9997 26.7517 11.1357 27.137 11.249C27.5337 11.351 27.953 11.402 28.395 11.402C28.9277 11.402 29.381 11.3283 29.755 11.181C30.129 11.0337 30.4124 10.824 30.605 10.552C30.809 10.28 30.911 9.95133 30.911 9.566C30.911 9.23733 30.7977 8.96533 30.571 8.75C30.3444 8.53467 30.027 8.35333 29.619 8.206C29.2224 8.05867 28.752 7.90567 28.208 7.747C27.6074 7.56567 27.0974 7.36733 26.678 7.152C26.27 6.92533 25.9584 6.65333 25.743 6.336C25.539 6.01867 25.437 5.62767 25.437 5.163C25.437 4.483 25.5674 3.87667 25.828 3.344C26.1 2.81133 26.4684 2.358 26.933 1.984C27.409 1.61 27.9474 1.32667 28.548 1.134C29.16 0.941333 29.8004 0.844999 30.469 0.844999C30.9904 0.844999 31.472 0.907333 31.914 1.032C32.3674 1.14533 32.7754 1.304 33.138 1.508C33.5007 1.712 33.818 1.94433 34.09 2.205L32.9 3.769C32.832 3.64433 32.7074 3.514 32.526 3.378C32.356 3.23067 32.1407 3.09467 31.88 2.97C31.6307 2.84533 31.3474 2.74333 31.03 2.664C30.724 2.58467 30.401 2.545 30.061 2.545C29.4944 2.545 29.024 2.63 28.65 2.8C28.276 2.97 27.9927 3.20233 27.8 3.497C27.6187 3.79167 27.528 4.13167 27.528 4.517C27.528 4.81167 27.6187 5.05533 27.8 5.248C27.9927 5.44067 28.2647 5.605 28.616 5.741C28.9787 5.86567 29.4207 6.00167 29.942 6.149C30.5767 6.319 31.1207 6.51733 31.574 6.744C32.0387 6.97067 32.4014 7.26533 32.662 7.628C32.9227 7.97933 33.053 8.43267 33.053 8.988C33.053 9.702 32.917 10.3253 32.645 10.858C32.373 11.3793 31.999 11.81 31.523 12.15C31.047 12.4787 30.503 12.7223 29.891 12.881C29.2904 13.0397 28.6614 13.119 28.004 13.119ZM37.7764 13.17C37.0057 13.17 36.3541 13 35.8214 12.66C35.3001 12.32 34.9034 11.8667 34.6314 11.3C34.3594 10.7333 34.2234 10.1043 34.2234 9.413C34.2234 8.699 34.3594 8.019 34.6314 7.373C34.9034 6.71567 35.2831 6.132 35.7704 5.622C36.2577 5.112 36.8301 4.70967 37.4874 4.415C38.1561 4.109 38.8814 3.956 39.6634 3.956C40.5814 3.956 41.3124 4.16 41.8564 4.568C42.4004 4.96467 42.7574 5.49733 42.9274 6.166L40.9894 6.744C40.8647 6.35867 40.6607 6.064 40.3774 5.86C40.1054 5.656 39.7597 5.554 39.3404 5.554C38.9324 5.554 38.5357 5.65033 38.1504 5.843C37.7764 6.02433 37.4364 6.285 37.1304 6.625C36.8357 6.95367 36.5977 7.339 36.4164 7.781C36.2464 8.21167 36.1614 8.682 36.1614 9.192C36.1614 9.65667 36.2407 10.0647 36.3994 10.416C36.5581 10.7673 36.7791 11.0507 37.0624 11.266C37.3571 11.47 37.6914 11.572 38.0654 11.572C38.3487 11.572 38.6321 11.521 38.9154 11.419C39.2101 11.3057 39.4764 11.1583 39.7144 10.977C39.9524 10.7843 40.1337 10.5747 40.2584 10.348L41.9754 10.892C41.7034 11.334 41.3464 11.725 40.9044 12.065C40.4737 12.405 39.9921 12.677 39.4594 12.881C38.9267 13.0737 38.3657 13.17 37.7764 13.17ZM46.4996 13.17C45.8423 13.17 45.2756 13.0057 44.7996 12.677C44.3236 12.3483 43.961 11.9063 43.7116 11.351C43.4623 10.7957 43.3376 10.178 43.3376 9.498C43.3376 8.77267 43.468 8.08133 43.7286 7.424C43.9893 6.75533 44.3463 6.166 44.7996 5.656C45.2643 5.13467 45.7913 4.721 46.3806 4.415C46.97 4.109 47.5876 3.956 48.2336 3.956C48.8796 3.956 49.4236 4.13167 49.8656 4.483C50.3076 4.83433 50.6136 5.27067 50.7836 5.792L51.1406 4.126H53.0276L51.5996 10.79C51.5883 10.8467 51.577 10.8977 51.5656 10.943C51.5656 10.977 51.5656 11.011 51.5656 11.045C51.5656 11.2717 51.696 11.3907 51.9566 11.402L51.6166 13C51.458 13.0227 51.3163 13.0397 51.1916 13.051C51.067 13.0737 50.9536 13.085 50.8516 13.085C50.5003 13.085 50.2283 13.0113 50.0356 12.864C49.843 12.7053 49.7466 12.4843 49.7466 12.201C49.7466 12.1443 49.7466 12.0763 49.7466 11.997C49.758 11.9177 49.7693 11.827 49.7806 11.725C49.8033 11.623 49.8316 11.5097 49.8656 11.385C49.4236 11.9517 48.8966 12.3937 48.2846 12.711C47.684 13.017 47.089 13.17 46.4996 13.17ZM47.3156 11.572C47.5423 11.572 47.7803 11.5267 48.0296 11.436C48.2903 11.3453 48.5396 11.2207 48.7776 11.062C49.027 10.9033 49.2536 10.7163 49.4576 10.501C49.6616 10.2857 49.826 10.0533 49.9506 9.804L50.4266 7.475C50.3813 7.11233 50.2623 6.78933 50.0696 6.506C49.877 6.21133 49.639 5.979 49.3556 5.809C49.0836 5.639 48.789 5.554 48.4716 5.554C48.041 5.554 47.633 5.66167 47.2476 5.877C46.8736 6.081 46.5393 6.35867 46.2446 6.71C45.9613 7.06133 45.7346 7.45233 45.5646 7.883C45.3946 8.31367 45.3096 8.75 45.3096 9.192C45.3096 9.64533 45.389 10.0477 45.5476 10.399C45.7176 10.7503 45.95 11.0337 46.2446 11.249C46.5506 11.4643 46.9076 11.572 47.3156 11.572ZM55.4456 13.136C54.9356 13.136 54.539 13.0113 54.2556 12.762C53.9723 12.5127 53.8306 12.1557 53.8306 11.691C53.8306 11.6003 53.8363 11.504 53.8476 11.402C53.859 11.3 53.876 11.2037 53.8986 11.113L56.1256 0.59H57.9786L55.9046 10.433C55.8933 10.4897 55.882 10.5463 55.8706 10.603C55.8593 10.6597 55.8536 10.7163 55.8536 10.773C55.8536 11.249 56.0973 11.487 56.5846 11.487C56.7093 11.487 56.8566 11.4643 57.0266 11.419C57.208 11.3737 57.3723 11.3227 57.5196 11.266L57.4516 12.728C57.1683 12.8413 56.834 12.9377 56.4486 13.017C56.0746 13.0963 55.7403 13.136 55.4456 13.136ZM62.3313 13.17C61.5153 13.17 60.8353 13 60.2913 12.66C59.7586 12.32 59.362 11.8667 59.1013 11.3C58.852 10.722 58.7273 10.093 58.7273 9.413C58.7273 8.67633 58.8576 7.97933 59.1183 7.322C59.3903 6.66467 59.77 6.081 60.2573 5.571C60.7446 5.061 61.3113 4.66433 61.9573 4.381C62.6033 4.09767 63.3003 3.956 64.0483 3.956C64.8756 3.956 65.5556 4.126 66.0883 4.466C66.6323 4.806 67.0346 5.25933 67.2953 5.826C67.556 6.39267 67.6863 7.02167 67.6863 7.713C67.6863 8.44967 67.5503 9.14667 67.2783 9.804C67.0176 10.4613 66.6436 11.045 66.1563 11.555C65.669 12.0537 65.0966 12.4503 64.4393 12.745C63.7933 13.0283 63.0906 13.17 62.3313 13.17ZM62.6373 11.572C63.034 11.572 63.4193 11.487 63.7933 11.317C64.1673 11.1357 64.496 10.8807 64.7793 10.552C65.074 10.2233 65.3063 9.84367 65.4763 9.413C65.6463 8.971 65.7313 8.48933 65.7313 7.968C65.7313 7.492 65.6576 7.07833 65.5103 6.727C65.363 6.36433 65.142 6.081 64.8473 5.877C64.5526 5.66167 64.19 5.554 63.7593 5.554C63.3626 5.554 62.9773 5.64467 62.6033 5.826C62.2406 6.00733 61.912 6.26233 61.6173 6.591C61.3226 6.91967 61.0903 7.305 60.9203 7.747C60.7503 8.189 60.6653 8.665 60.6653 9.175C60.6653 9.63967 60.739 10.0533 60.8863 10.416C61.0336 10.7787 61.2546 11.062 61.5493 11.266C61.8553 11.47 62.218 11.572 62.6373 11.572ZM70.2028 4.109H71.8858L71.5118 5.894C71.8065 5.49733 72.1578 5.15733 72.5658 4.874C72.9738 4.57933 73.4158 4.35267 73.8918 4.194C74.3678 4.03533 74.8495 3.956 75.3368 3.956C75.8355 3.956 76.2265 4.04667 76.5098 4.228C76.7932 4.40933 76.9972 4.65867 77.1218 4.976C77.2465 5.282 77.3088 5.63333 77.3088 6.03C77.3088 6.268 77.2862 6.51733 77.2408 6.778C77.2068 7.03867 77.1615 7.305 77.1048 7.577L75.9658 13H74.0958L75.1498 8.019C75.1952 7.80367 75.2292 7.611 75.2518 7.441C75.2745 7.25967 75.2858 7.08967 75.2858 6.931C75.2858 6.47767 75.1895 6.149 74.9968 5.945C74.8155 5.72967 74.5492 5.622 74.1978 5.622C73.8692 5.622 73.5178 5.71267 73.1438 5.894C72.7812 6.07533 72.4355 6.32467 72.1068 6.642C71.7782 6.948 71.5118 7.305 71.3078 7.713L70.1688 13H68.2988L70.2028 4.109ZM81.9535 13.17C81.2055 13.17 80.5652 13.0057 80.0325 12.677C79.4999 12.3483 79.0919 11.9007 78.8085 11.334C78.5365 10.7673 78.4005 10.127 78.4005 9.413C78.4005 8.67633 78.5365 7.985 78.8085 7.339C79.0805 6.68167 79.4659 6.098 79.9645 5.588C80.4632 5.078 81.0412 4.68133 81.6985 4.398C82.3672 4.10333 83.0925 3.956 83.8745 3.956C84.4865 3.956 85.0192 4.05233 85.4725 4.245C85.9372 4.42633 86.2942 4.69833 86.5435 5.061C86.8042 5.41233 86.9345 5.86 86.9345 6.404C86.9345 7.31067 86.5209 8.002 85.6935 8.478C84.8775 8.954 83.6309 9.192 81.9535 9.192C81.6362 9.192 81.2792 9.18633 80.8825 9.175C80.4859 9.15233 80.0382 9.11833 79.5395 9.073L79.7945 7.866C80.2479 7.88867 80.6502 7.91133 81.0015 7.934C81.3529 7.95667 81.6815 7.968 81.9875 7.968C82.7922 7.968 83.4269 7.90567 83.8915 7.781C84.3562 7.65633 84.6905 7.48067 84.8945 7.254C85.0985 7.016 85.2005 6.74967 85.2005 6.455C85.2005 6.19433 85.1382 5.98467 85.0135 5.826C84.8889 5.66733 84.7132 5.54833 84.4865 5.469C84.2599 5.37833 83.9879 5.333 83.6705 5.333C83.1719 5.333 82.7129 5.44633 82.2935 5.673C81.8742 5.88833 81.5115 6.19433 81.2055 6.591C80.9109 6.97633 80.6785 7.41267 80.5085 7.9C80.3499 8.38733 80.2705 8.903 80.2705 9.447C80.2705 9.87767 80.3385 10.2743 80.4745 10.637C80.6219 10.9883 80.8429 11.2717 81.1375 11.487C81.4435 11.691 81.8232 11.793 82.2765 11.793C82.7639 11.793 83.2342 11.674 83.6875 11.436C84.1409 11.1867 84.4979 10.8523 84.7585 10.433L86.2375 10.892C85.9542 11.334 85.5859 11.7307 85.1325 12.082C84.6792 12.422 84.1749 12.6883 83.6195 12.881C83.0755 13.0737 82.5202 13.17 81.9535 13.17ZM88.0568 11.674C88.0568 11.5833 88.0625 11.4927 88.0738 11.402C88.0851 11.3113 88.1021 11.215 88.1248 11.113L89.3148 5.554H88.1758L88.4988 4.109H89.6038L90.2328 1.185H92.1028L91.4738 4.109H93.3098L93.0038 5.554H91.1848L90.1308 10.518C90.1195 10.5633 90.1081 10.6087 90.0968 10.654C90.0968 10.688 90.0968 10.7277 90.0968 10.773C90.0968 10.9997 90.1591 11.164 90.2838 11.266C90.4198 11.368 90.5898 11.419 90.7938 11.419C90.9638 11.419 91.1281 11.3963 91.2868 11.351C91.4568 11.3057 91.6098 11.2603 91.7458 11.215C91.8818 11.1583 91.9951 11.1073 92.0858 11.062L92.1538 12.541C91.9838 12.643 91.7685 12.745 91.5078 12.847C91.2585 12.9377 90.9865 13.0057 90.6918 13.051C90.3971 13.1077 90.0911 13.136 89.7738 13.136C89.2865 13.136 88.8785 13.0227 88.5498 12.796C88.2211 12.558 88.0568 12.184 88.0568 11.674ZM96.6862 13.17C96.0288 13.17 95.4622 13.0057 94.9862 12.677C94.5102 12.3483 94.1475 11.9063 93.8982 11.351C93.6488 10.7957 93.5242 10.178 93.5242 9.498C93.5242 8.77267 93.6545 8.08133 93.9152 7.424C94.1758 6.75533 94.5328 6.166 94.9862 5.656C95.4508 5.13467 95.9778 4.721 96.5672 4.415C97.1565 4.109 97.7742 3.956 98.4202 3.956C99.0662 3.956 99.6102 4.13167 100.052 4.483C100.494 4.83433 100.8 5.27067 100.97 5.792L101.327 4.126H103.214L101.786 10.79C101.775 10.8467 101.764 10.8977 101.752 10.943C101.752 10.977 101.752 11.011 101.752 11.045C101.752 11.2717 101.883 11.3907 102.143 11.402L101.803 13C101.645 13.0227 101.503 13.0397 101.378 13.051C101.254 13.0737 101.14 13.085 101.038 13.085C100.687 13.085 100.415 13.0113 100.222 12.864C100.03 12.7053 99.9332 12.4843 99.9332 12.201C99.9332 12.1443 99.9332 12.0763 99.9332 11.997C99.9445 11.9177 99.9558 11.827 99.9672 11.725C99.9898 11.623 100.018 11.5097 100.052 11.385C99.6102 11.9517 99.0832 12.3937 98.4712 12.711C97.8705 13.017 97.2755 13.17 96.6862 13.17ZM97.5022 11.572C97.7288 11.572 97.9668 11.5267 98.2162 11.436C98.4768 11.3453 98.7262 11.2207 98.9642 11.062C99.2135 10.9033 99.4402 10.7163 99.6442 10.501C99.8482 10.2857 100.013 10.0533 100.137 9.804L100.613 7.475C100.568 7.11233 100.449 6.78933 100.256 6.506C100.064 6.21133 99.8255 5.979 99.5422 5.809C99.2702 5.639 98.9755 5.554 98.6582 5.554C98.2275 5.554 97.8195 5.66167 97.4342 5.877C97.0602 6.081 96.7258 6.35867 96.4312 6.71C96.1478 7.06133 95.9212 7.45233 95.7512 7.883C95.5812 8.31367 95.4962 8.75 95.4962 9.192C95.4962 9.64533 95.5755 10.0477 95.7342 10.399C95.9042 10.7503 96.1365 11.0337 96.4312 11.249C96.7372 11.4643 97.0942 11.572 97.5022 11.572Z" fill="#119DD8"/>
</svg>
